<?xml version="1.0" encoding="UTF-8" standalone="no"?>
<svg width="64px" height="64px" viewBox="0 0 64 64" version="1.1" xmlns="http://www.w3.org/2000/svg" xmlns:xlink="http://www.w3.org/1999/xlink">
	<g stroke="none" stroke-width="1" fill="none" fill-rule="evenodd">
        <path style="fill:#a81536; stroke:none;" d="M0 0L0 64L64 64L64 0L0 0z"/>
        <path style="fill:#f7bbc8; stroke:none;" d="M13.6034 13.0278C10.9387 15.1433 12.0615 19.7657 15.1481 20.6821C19.7664 22.0533 26.2054 21.086 30.9992 20.9954C32.7324 20.9626 34.9455 21.1242 36.3966 19.9722C39.0613 17.8567 37.9385 13.2343 34.8519 12.3179C30.2336 10.9467 23.7946 11.914 19.0008 12.0046C17.2676 12.0374 15.0545 11.8758 13.6034 13.0278z"/>
        <path style="fill:#ffffff; stroke:none;" d="M42.6034 13.0278C37.1178 17.3792 45.7276 23.6759 50.3966 19.9722C55.8822 15.6208 47.2724 9.32408 42.6034 13.0278z"/>
        <path style="fill:#f7bbc8; stroke:none;" d="M14.608 14.027C12.2874 15.8953 13.6862 18.9507 16.1481 19.6821C19.8801 20.7908 32.2631 21.4919 35.392 18.973C37.7126 17.1047 36.3138 14.0493 33.8519 13.3179C30.1199 12.2092 17.7369 11.5081 14.608 14.027z"/>
        <path style="fill:#ffffff; stroke:none;" d="M13.6034 26.0278C8.11784 30.3792 16.7276 36.6759 21.3966 32.9722C26.8822 28.6208 18.2724 22.3241 13.6034 26.0278M28.6034 26.0278C23.1178 30.3792 31.7276 36.6759 36.3966 32.9722C41.8821 28.6208 33.2724 22.3241 28.6034 26.0278M42.6034 26.0278C37.1179 30.3792 45.7276 36.6759 50.3966 32.9722C55.8821 28.6208 47.2724 22.3241 42.6034 26.0278M13.7423 39.0278C10.8806 41.343 10.9788 50.6432 14.4336 52.3966C16.8055 53.6004 20.4293 52.9998 23 53L42 53C44.4291 52.9989 48.2164 53.6238 50.2577 51.9722C53.1193 49.657 53.0212 40.3568 49.5664 38.6034C47.1945 37.3996 43.5707 38.0002 41 38L22 38C19.5709 38.0011 15.7836 37.3762 13.7423 39.0278z"/>
	</g>
</svg>