<?xml version="1.0" encoding="UTF-8" standalone="no"?>
<svg width="64px" height="64px" viewBox="0 0 64 64" version="1.1" xmlns="http://www.w3.org/2000/svg" xmlns:xlink="http://www.w3.org/1999/xlink">
	<g stroke="none" stroke-width="1" fill="none" fill-rule="evenodd">
        <path style="fill:#a81536; stroke:none;" d="M0 0L0 64L64 64L64 0L0 0z"/>
        <path style="fill:#f7bbc8; stroke:none;" d="M11 11L11 53L17 53L19 53L21 52.9167L21.9444 52.7778L22.9444 52.5833L25 52L25.3333 50.5L25.6389 49.9444L26.0833 48.9444L26.6389 48L27.1944 47.0278L28.3889 45.2222L29.6667 43.6111L30.9167 41.9167L32.0278 40L33.25 38.1111L34.5278 36.7778L36 36L36.25 34.5L36.5278 32.9444L36.5556 32L36.5278 31.0556L36.25 29.5L36 28L34.5833 27.2222L33.4167 25.8889L32.25 24L31.75 23.0278L30.5556 21.2222L29.1667 19.6111L28.4444 18.7778L27.1944 16.9722L26.6389 16L26.0833 15.0556L25.6389 14.0556L25.3333 13.5L25 12L22.9444 11.4167L21.9444 11.2222L21 11.0833L19 11L17 11L11 11z"/>
        <path style="fill:#ffffff; stroke:none;" d="M34 20L35.4722 20.7778L36.75 22.1111L38 23.9167L38.5833 24.7778L39.8611 26.3889L40.5556 27.2222L41.7778 28.9167L42.4167 29.6944L42.7778 30.2222L44 31L44 33L42.7778 33.7778L42.4167 34.3056L41.7778 35.0833L40.5556 36.7778L39.2222 38.3889L38.5833 39.2222L38.0278 40.0833L37.5 41.0278L36.6111 42.9444L36.3056 43.9444L36.1111 44.5L36 46L34 46L33 47L33.25 49.0278L33.5 49.9722L34.5 51.5L36.0833 52.5L37.9444 52.9167L39.5 53L41 53L41.3333 51.5L41.6389 50.9444L42.1111 49.9444L43.3611 48.1111L44.1667 47.3056L44.5833 46.7778L46 46L46.3611 44.5L46.6944 43.9444L47.2222 42.9444L48.4167 41L49.5556 39.1111L50.25 38.3056L50.6111 37.7778L52 37L52.25 35.5L52.3889 34.9444L52.6111 33.9444L52.8333 32L52.6111 30.0556L52.3889 29.0556L52.25 28.5L52 27L50.6111 26.2222L50.25 25.6944L49.5556 24.8889L48.4167 23L47.2222 21.0556L46.6944 20.0556L46.3611 19.5L46 18L44.5833 17.2222L44.1667 16.6944L43.3611 15.8889L42.1111 14.0556L41.6389 13.0556L41.3333 12.5L41 11L39.5 11L37.9444 11.0833L36.0833 11.5L34.5 12.5L33.5278 14.0833L33.3056 16L33.4167 16.9444L33.75 18.5L34 20z"/>
        <path style="fill:#f7bbc8; stroke:none;" d="M12 12L12 52L16 52L18 52L20 51.9167L20.9444 51.7778L21.9444 51.5833L24 51L24.3333 49.5L24.6389 48.9444L25.0833 47.9444L25.6389 47L26.1944 46.0278L27.3889 44.2222L28.6667 42.6111L29.9167 40.9167L31.0278 39L32.25 37.1111L33.5278 35.7778L35 35L35 29L33.5833 28.2222L32.4167 26.8889L31.25 25L30.75 24.0278L29.5556 22.2222L28.1667 20.6111L27.4444 19.7778L26.1944 17.9722L25.6389 17L25.0833 16.0556L24.6389 15.0556L24.3333 14.5L24 13L21.9444 12.4167L20.9444 12.2222L20 12.0833L18 12L16 12L12 12z"/>
	</g>
</svg>