<?xml version="1.0" encoding="UTF-8" standalone="no"?>
<svg width="64px" height="64px" viewBox="0 0 64 64" version="1.1" xmlns="http://www.w3.org/2000/svg" xmlns:xlink="http://www.w3.org/1999/xlink">
	<g stroke="none" stroke-width="1" fill="none" fill-rule="evenodd">
		<path style="fill:#a81536; stroke:none;" d="M0 0L0 64L64 64L64 0L0 0z"/>
		<path style="fill:#ffffff; stroke:none;" d="M13 12L12.0278 13.5L11.4444 15.0556L11.0833 17L11 19L11 20L11 21L11 24L11 40L11 43L11 44L11 45L11.0833 47L11.4444 48.9444L12.0278 50.5L13 52L49 52L49.9722 50.5L50.5556 48.9444L50.9167 47L51 45L51 44L51 43L51 40L51 24L51 21L51 20L51 19L50.9167 17L50.5556 15.0556L49.9722 13.5L49 12L13 12z"/>
		<path style="fill:#a81536; stroke:none;" d="M19 20L18 21L18 30L19 31L29 31L30 30L30 21L29 20L19 20M32 21L32 23L33 24L37 24L39 24L41 23.9722L41.9444 23.9444L42.9444 23.75L43.5 23.7222L45 23L45 21L44 20L40 20L38 20L36 20.0278L35.0556 20.0556L34.0556 20.25L33.5 20.2778L32 21M32 29L32 31L33 32L37 32L39 32L41 31.9722L41.9444 31.9444L42.9444 31.75L43.5 31.7222L45 31L45 29L44 28L40 28L38 28L36 28.0278L35.0556 28.0556L34.0556 28.25L33.5 28.2778L32 29M18 36L18 38L19 39L34 39L37 39L39 39L41 38.9722L41.9444 38.9444L42.9444 38.75L43.5 38.7222L45 38L45 36L44 35L29 35L26 35L24 35L22 35.0278L21.0556 35.0556L20.0556 35.25L19.5 35.2778L18 36M18 43L18 45L19 46L31 46L34 46L36 46L37 45.9722L37.9444 45.9444L38.9444 45.75L39.5 45.7222L41 45L41 43L40 42L28 42L25 42L23 42L22 42.0278L21.0556 42.0556L20.0556 42.25L19.5 42.2778L18 43z"/>
	</g>
</svg>