<?xml version="1.0" encoding="UTF-8" standalone="no"?>
<svg width="64px" height="64px" viewBox="0 0 64 64" version="1.1" xmlns="http://www.w3.org/2000/svg" xmlns:xlink="http://www.w3.org/1999/xlink">
	<g stroke="none" stroke-width="1" fill="none" fill-rule="evenodd">
        <path style="fill:#a81536; stroke:none;" d="M0 0L0 64L64 64L64 0L0 0z"/>
        <path style="fill:#ffffff; stroke:none;" d="M38 46C31.7236 46 21.4586 48.2722 18 42C24.9497 42 34.3309 43.7696 41 42.1111C44.7156 41.1871 47.529 37.616 51 36C51 30.5256 53.3455 17.7792 49.2577 13.6034C47.0461 11.3442 42.8534 12.0013 40 12C33.0044 11.9968 25.995 11.8726 19.0008 12.0046C15.6371 12.0681 12.5372 12.3756 11.4336 16.0586C9.25451 23.3316 10.9873 33.4321 11 41C11.0046 43.7338 10.5771 47.2815 12.179 49.6821C14.0645 52.5077 18.0529 51.9939 21 52C28.4157 52.0153 33.615 52.783 38 46z"/>
        <path style="fill:#123245; stroke:none;" d="M18 20L19 21L18 20z"/>
        <path style="fill:#a81536; stroke:none;" d="M19.6034 21.0278C13.3846 25.953 22.4874 34.6522 28.3966 29.9722C34.6154 25.047 25.5126 16.3478 19.6034 21.0278M32 21L32 23C36.3604 24.2889 40.6396 24.2889 45 23L45 21C40.6396 19.7111 36.3604 19.7111 32 21M32 29L32 31C36.3604 32.2889 40.6396 32.2889 45 31L45 29C40.6396 27.7111 36.3604 27.7111 32 29z"/>
        <path style="fill:#1d4f6d; stroke:none;" d="M18 30L19 31L18 30z"/>
        <path style="fill:#225d80; stroke:none;" d="M18 35L19 36L18 35z"/>
        <path style="fill:#a81536; stroke:none;" d="M18 36L18 38C25.4939 40.2151 37.5061 40.2151 45 38L45 36C37.5061 33.7849 25.4939 33.7849 18 36z"/>
        <path style="fill:#ffffff; stroke:none;" d="M43 50C39.7753 51.5318 38.2385 52.6136 37 56C45.2707 55.7295 54.0895 47.1759 55 39C51.0235 39.4319 38.553 44.8167 43 50z"/>
        <path style="fill:#15394f; stroke:none;" d="M18 42L19 43L18 42z"/>
	</g>
</svg>