<?xml version="1.0" encoding="UTF-8" standalone="no"?>
<svg width="64px" height="64px" viewBox="0 0 64 64" version="1.1" xmlns="http://www.w3.org/2000/svg" xmlns:xlink="http://www.w3.org/1999/xlink">
	<g stroke="none" stroke-width="1" fill="none" fill-rule="evenodd">
        <path style="fill:#a81536; stroke:none;" d="M0 0L0 64L64 64L64 0L0 0z"/>
        <path style="fill:#ffffff; stroke:none;" d="M25 29L25 26.9444L25 25.9444L25.0278 24L25.0833 23L25.5 21L26.5 19L27.25 18.0278L28.0833 17.1111L29.0278 16.3333L31 15.4167L32 15.3611L33.9722 15.9444L34.9167 16.5L36.5 18.0833L37.5 20L37.75 21L37.9167 22L38 24L38 25.9444L38 29L39.4722 28.6389L40.8056 27.6667L41.5 26.8889L42.5 25L42.9167 23L42.9722 21L42.75 19L42.5 18L41.5 16L39.9167 14.0833L38 12.5L36 11.5L34 11.0833L32 11L30 11.0833L29 11.25L28 11.4722L26.0278 12.2778L24.2222 13.4722L22.7222 15.0833L21.6389 17L21.3056 18L21.0278 20L21 22L21.0833 24L21.5 25.9722L22.4444 27.6667L23.5833 28.6389L25 29M30 19L29 20L29 41L27.5833 40.2222L27.1944 39.6944L26.4167 38.9167L25.8333 38.0556L24.5278 36.5L22.9167 35.5833L22.0278 35.4722L21.0556 35.5L19 36L19.25 37.5L19.4167 38.0556L19.6944 39.0556L20.3333 41L21.0278 43L21.3889 44L22.25 46L22.75 47L23.1667 48L24 49.9444L24.1944 50.5L25 52L43 52L43.5833 49.9444L44 48L44.4167 46L44.6944 45L45 44L45.5833 42L45.8889 40L45.6667 38L45.2778 37.0278L43.8889 35.3056L42.9722 34.6389L42 34.1111L41 33.6944L39 33L37.0556 32.4167L36.5 32.25L35 32L35 20L34 19L30 19z"/>
	</g>
</svg>