<?xml version="1.0" encoding="UTF-8" standalone="no"?>
<svg width="64px" height="64px" viewBox="0 0 64 64" version="1.1" xmlns="http://www.w3.org/2000/svg" xmlns:xlink="http://www.w3.org/1999/xlink">
	<g stroke="none" stroke-width="1" fill="none" fill-rule="evenodd">
        <path style="fill:#a81536; stroke:none;" d="M0 0L0 64L64 64L64 0L0 0z"/>
        <path style="fill:#ffffff; stroke:none;" d="M16 5L15.9722 7.05556L15.9167 8.05556L15.6111 9.94444L15.25 11.5L15 13L13.5 13.0556L12.9444 13.1389L11 13.2222L10 13.1667L8.05556 13.0556L6 13L6 26L7.5 25.9722L8.94444 25.7222L9.69444 25.3333L10.2222 25.1389L11 24L12.5 24.8056L13.0556 24.9722L15 25.6111L16 25.8611L17 26.1389L19 26.5833L20 26.6944L22 26.5556L23.9722 25.8889L24.8889 25.3611L26.2778 23.8889L26.6667 22.9722L26.8889 22L27 20L27 18L27 14L24.9444 13.4167L23.0556 13.0833L21 13L21 6L20 5L16 5z"/>
        <path style="fill:#a81536; stroke:none;" d="M10 13L11 14L10 13z"/>
        <path style="fill:#ffffff; stroke:none;" d="M46 21L45.5556 22.5L45.3333 23.0556L44.6944 25L44.4167 25.9444L44.0833 27.5L44 29L35 29L35.7778 30.5L36.3056 31.0278L37.1111 31.9444L37.9722 32.6667L39.5 33.6389L41 34L40.9167 35.5L40.5833 37.0556L40.3056 38L39.6944 40L39.4167 40.9444L39.0833 42.5L39 44L40.5 43.7222L42.0556 43.0556L43 42.5278L44 41.8333L45.9444 40.4444L48 39L48.7778 40.4167L49.3056 40.8333L50.1111 41.6389L51.9444 42.8889L52.9444 43.3611L53.5 43.6667L55 44L54.9167 42.5L54.5833 40.9444L54.3056 40L53.6944 38L53.4167 37.0556L53.0833 35.5L53 34L54.5 33.6389L56.0278 32.6667L56.8889 31.9444L57.6944 31.0278L58.2222 30.5L59 29L50 29L49.9167 27.5L49.5833 25.9444L49.3056 25L48.6667 23.0556L48.4444 22.5L48 21L46 21z"/>
        <path style="fill:#a81536; stroke:none;" d="M45 22L46 23L45 22M48 22L49 23L48 22z"/>
        <path style="fill:#a81536; stroke:none;" d="M26 24L27 25L26 24M25 25L26 26L25 25z"/>
        <path style="fill:#a81536; stroke:none;" d="M35 30L36 31L35 30z"/>
        <path style="fill:#ffffff; stroke:none;" d="M33 49L32.4722 47.5L32.1111 46.9444L31.5833 45.9722L30.3056 44.2222L29.5833 43.3889L28.7778 42.6389L27.9167 41.8889L26 40.6111L25 40.1111L23 39.4167L21 39.0833L19 39L17 39.0278L16 39.0833L14 39.4167L13 39.6944L11 40.4167L10.0278 40.9167L9.08333 41.5L8.22222 42.2222L7.41667 43L6.02778 44.6111L4.91667 46.2222L4.36111 48.0278L4.41667 49L5.25 50.9722L5.88889 51.9167L7.38889 53.5278L8.22222 54.1667L10.0278 55.3611L12 56.3889L14 57.1111L15 57.3611L17 57.7778L19 57.8889L20 57.7778L22 57.3056L24 56.5833L26 55.5833L27.9722 54.3056L28.9167 53.5833L30.5556 51.9722L31.75 50.5L33 49z"/>
        <path style="fill:#a81536; stroke:none;" d="M47 39L48 40L47 39z"/>
        <path style="fill:#a81536; stroke:none;" d="M28 42L29 43L28 42z"/>
        <path style="fill:#a81536; stroke:none;" d="M51 42L52 43L51 42z"/>
        <path style="fill:#a81536; stroke:none;" d="M13 45L13 47.0556L13.0278 48.0556L13.1111 49L13.7222 50.9167L15.1111 52.5L17 53.4722L18 53.6667L19.9722 53.4722L21.75 52.5L23.0556 50.9167L23.5 49.9722L23.8056 48L23.6389 47L23.2778 46.0278L22.6667 45.1111L20.9722 43.7222L19 43.1389L17 43.25L16.0556 43.4444L15.0556 43.8611L14.5 44.0278L13 45z"/>
        <path style="fill:#a81536; stroke:none;" d="M6 44L7 45L6 44z"/>
        <path style="fill:#ffffff; stroke:none;" d="M21 52L21.4167 50.5L21.75 48.9444L21.6389 47.0278L21.2778 46.1111L19.8889 44.75L18.9722 44.4167L17.0833 44.5278L15.5 45.5L14.5278 47.0833L14.4167 48.9722L14.75 49.8889L16.1111 51.2778L17.0278 51.6667L17.9444 51.8889L19.5 52L21 52z"/>
        <path style="fill:#a81536; stroke:none;" d="M30 44L31 45L30 44M16 53L17 54L16 53M20 53L21 54L20 53z"/>
	</g>
</svg>