<?xml version="1.0" encoding="UTF-8" standalone="no"?>
<svg width="64px" height="64px" viewBox="0 0 64 64" version="1.1" xmlns="http://www.w3.org/2000/svg" xmlns:xlink="http://www.w3.org/1999/xlink">
	<g stroke="none" stroke-width="1" fill="none" fill-rule="evenodd">
        <path style="fill:#a81536; stroke:none;" d="M0 0L0 64L64 64L64 0L0 0z"/>
        <path style="fill:#ffffff; stroke:none;" d="M36 3L32 7C34.9866 11.6701 35.7536 13.5806 32 18L36 23C40.6701 20.0134 42.5806 19.2464 47 23L52 19C49.0134 14.3299 48.2464 12.4194 52 8L48 3C42.9226 6.24709 41.0774 6.24709 36 3M13.6034 26.0278C11.8638 27.4055 12.0421 30.0191 12.0046 32.0008C11.9229 36.3261 10.0221 47.9623 13.7423 50.9722C15.7836 52.6238 19.5709 51.9989 22 52L42 52C44.4291 51.9989 48.2164 52.6238 50.2577 50.9722C53.9779 47.9623 52.0771 36.3261 51.9954 32.0008C51.9579 30.0191 52.1362 27.4055 50.3966 26.0278C48.3106 24.3756 44.4692 25.0011 42 25L22 25C19.5308 25.0011 15.6894 24.3756 13.6034 26.0278z"/>
        <path style="fill:#a81536; stroke:none;" d="M14 34L14 44L16 44C16.1254 40.1224 16.5016 37.9282 20 36L20 44L22 44C22.1254 40.1224 22.5016 37.9282 26 36L26 44L28 44C27.9981 41.5495 28.6307 37.6647 26.9722 35.6142C24.6563 32.7508 17.3657 34.2536 14 34M36 42L30 41C33.6107 46.5647 40.5643 40.9638 35.0116 38.4344C34.1817 38.0564 32.8087 38.0931 32 38L32 36L38 37C36.7434 35.0634 30.1582 32.2778 30.9205 36.9244C31.2641 39.0188 34.5588 40.6576 36 42M46 43C44.012 45.0611 42.8429 45.5787 40 46L40 48C49.0128 47.7065 48 41.3211 48 34C45.6135 34.0283 42.5685 33.711 40.7431 35.6034C36.4294 40.0753 41.5284 43.9964 46 43z"/>
        <path style="fill:#ffffff; stroke:none;" d="M46 36C37.856 37.3593 45.2819 45.2223 46 36z"/>
	</g>
</svg>