<?xml version="1.0" encoding="UTF-8" standalone="no"?>
<svg width="64px" height="64px" viewBox="0 0 64 64" version="1.1" xmlns="http://www.w3.org/2000/svg" xmlns:xlink="http://www.w3.org/1999/xlink">
	<g stroke="none" stroke-width="1" fill="none" fill-rule="evenodd">
        <path style="fill:#a81536; stroke:none;" d="M0 0L0 64L64 64L64 0L0 0z"/>
        <path style="fill:#ffffff; stroke:none;" d="M13.6034 13.0278C8.11784 17.3792 16.7276 23.6759 21.3966 19.9722C26.8822 15.6208 18.2724 9.32408 13.6034 13.0278M28.6034 13.0278C23.1178 17.3792 31.7276 23.6759 36.3966 19.9722C41.8822 15.6208 33.2724 9.32408 28.6034 13.0278M42.6034 13.0278C37.1178 17.3792 45.7276 23.6759 50.3966 19.9722C55.8822 15.6208 47.2724 9.32408 42.6034 13.0278M13.6034 26.0278C11.8638 27.4055 12.0421 30.0191 12.0046 32.0008C11.9229 36.3261 10.0221 47.9623 13.7423 50.9722C15.7836 52.6238 19.5709 51.9989 22 52L42 52C44.4291 51.9989 48.2164 52.6238 50.2577 50.9722C53.9779 47.9623 52.0771 36.3261 51.9954 32.0008C51.9579 30.0191 52.1362 27.4055 50.3966 26.0278C48.3106 24.3756 44.4692 25.0011 42 25L22 25C19.5308 25.0011 15.6894 24.3756 13.6034 26.0278z"/>
	</g>
</svg>