<svg xmlns="http://www.w3.org/2000/svg" width="226.909" height="71.698" viewBox="0 0 226.909 71.698">
  <g id="Group_19" data-name="Group 19" transform="translate(-1267 1733)">
    <g id="Page-1" transform="translate(1266.376 -1733)">
      <g id="Nav-B---Saleforce" transform="translate(-112 -24)">
        <g id="Nav">
          <g id="Brand-Elements_Logo_TSA-Logo-Horizontal" data-name="Brand-Elements/Logo/TSA-Logo-Horizontal">
            <g id="Group_17" data-name="Group 17">
              <g id="Group_16" data-name="Group 16" transform="translate(112 24)">
                <g id="TSA_Logo_Horizontal">
                  <path id="Path" d="M84.865,38.842h1.194v1.806a3.772,3.772,0,0,0,2.874,1.636A2.305,2.305,0,0,0,91.307,40c0-2.4-3.3-2.874-5.223-4.8a3.947,3.947,0,0,1-1.263-2.874,3.821,3.821,0,0,1,4.042-3.682,4.958,4.958,0,0,1,2.716.714V28.6h1.187v3.878H91.579V30.947a3.158,3.158,0,0,0-2.469-1.206,2,2,0,0,0-2.28,2.04c0,2.229,3.253,2.564,5.293,4.6a3.663,3.663,0,0,1,1.213,2.88,3.99,3.99,0,0,1-4.276,4.111,5.375,5.375,0,0,1-3.013-1v1.042H84.853Z" fill="#005288"/>
                  <path id="Shape" d="M97.509,36.392c.139-1.686.688-2.526,2-2.526s2.04.9,2.23,2.526Zm6.556.973c-.379-2.874-1.951-4.459-4.421-4.459-2.728,0-4.516,1.945-4.516,4.964,0,2.779,1.832,5.533,5.2,5.533a6.057,6.057,0,0,0,3.732-1.263l.146-1.086a6.171,6.171,0,0,1-3.3,1.143c-2.115,0-3.416-2-3.416-4.851Z" fill="#005288"/>
                  <path id="Path-2" data-name="Path" d="M113.8,36.038h-.682a2.432,2.432,0,0,0-2.381-2.16c-1.592,0-2.659,1.162-2.659,3.7,0,2.924,1.118,4.491,3.158,4.491a5.524,5.524,0,0,0,2.8-1.086c.234,0,.328.423.328.587,0,.4-1.635,1.832-3.865,1.832-2.779,0-4.895-2.375-4.895-5.488a4.7,4.7,0,0,1,4.75-5.008,5.686,5.686,0,0,1,2.526.632l.19-.594h.682Z" fill="#005288"/>
                  <path id="Path-3" data-name="Path" d="M115.5,33.189h3.972v6.84a1.788,1.788,0,0,0,1.8,2.04,4.424,4.424,0,0,0,2.426-1.017v-6.89h-1.756v-.973h3.954v8.956h1.787v.973h-3.985V41.931a5.408,5.408,0,0,1-3.569,1.472c-1.755,0-2.842-1-2.842-3.038v-6.2H115.5Z" fill="#005288"/>
                  <path id="Path-4" data-name="Path" d="M128.842,42.145h1.781V34.162h-1.781v-.973h3.966V34.85h.051c1.187-1.478,1.781-1.945,2.419-1.945a2.218,2.218,0,0,1,1.693.947,7.06,7.06,0,0,1-.91,2.451c-.568-1.049-.9-1.409-1.566-1.409s-1.137.43-1.687,1.187v6.063h1.781v.973h-5.747Z" fill="#005288"/>
                  <path id="Shape-2" data-name="Shape" d="M138.543,42.145h1.737V34.162h-1.737v-.973h3.916v8.956h1.693v.973h-5.609Zm3.922-12a1.313,1.313,0,1,1-1.313-1.314,1.313,1.313,0,0,1,1.313,1.314" fill="#005288"/>
                  <path id="Path-5" data-name="Path" d="M145.194,34.162l3.562-3.682v2.709h2.779v.973h-2.779V39.91c0,1.566.429,2.305,1.332,2.305s1.428-.758,1.661-.758.24.19.24.3a2.746,2.746,0,0,1-2.614,1.642c-1.807,0-2.8-1.162-2.8-3.3V34.162Z" fill="#005288"/>
                  <path id="Path-6" data-name="Path" d="M152.488,33.189h4.819v.973h-1.256l2.374,6.366,2.47-6.366h-1.162v-.973h3.322v.973h-1.188L156.221,48.53h-1.857L157,42.688l-3.209-8.526h-1.3Z" fill="#005288"/>
                  <path id="Shape-3" data-name="Shape" d="M91.579,56.912H87.789l1.832-5.229h.044ZM83.6,63.082H87.31V61.895H86.046l1.263-3.789h4.749l1.352,3.789H92.059v1.181h4.964V61.895H95.76l-5-13.4H89.552l-4.73,13.4H83.558Z" fill="#005288"/>
                  <path id="Shape-4" data-name="Shape" d="M104.842,62.11h-.947c-2.35,0-4.036-1.118-4.036-4.156,0-2.425,1-3.827,2.659-3.827a3.4,3.4,0,0,1,2.324,1.118Zm-1.756-13.68h1.756v5.684a4.719,4.719,0,0,0-3.013-1.263c-2.4,0-4.421,2.305-4.421,5.084,0,3.158,2.229,5.129,5.685,5.129h5.684V62.11h-1.756V47.457h-3.947Z" fill="#005288"/>
                  <path id="Path-7" data-name="Path" d="M109.352,62.11h1.762V54.126h-1.762v-.973H113.3v1.162a8.705,8.705,0,0,1,3.922-1.427,2.526,2.526,0,0,1,2.444,1.661,7.631,7.631,0,0,1,3.992-1.661c1.857,0,2.861,1.187,2.861,3.328v5.912h1.737V63.1h-5.6V62.11h1.667V56.842c0-1.705-.6-2.526-1.831-2.526a5.186,5.186,0,0,0-2.6,1.067V62.11h1.737v.973h-5.583V62.11h1.661V57.145c0-1.686-.234-2.823-1.781-2.823a4.866,4.866,0,0,0-2.634,1.067v6.72h1.686v.973h-5.633Z" fill="#005288"/>
                  <path id="Shape-5" data-name="Shape" d="M129.2,62.11h1.73V54.126H129.2v-.973h3.916V62.11H134.8v.973h-5.6Zm3.922-11.962a1.314,1.314,0,1,1-1.307-1.314,1.314,1.314,0,0,1,1.307,1.314" fill="#005288"/>
                  <path id="Path-8" data-name="Path" d="M135.789,62.11H137.6V54.126h-1.807v-.973h4v1.118a6.192,6.192,0,0,1,3.676-1.4,2.619,2.619,0,0,1,2.735,2.905V62.09h1.756v.973h-5.508V62.11H144V56.267c0-1.352-.739-2.065-1.762-2.065a4.224,4.224,0,0,0-2.463,1.042V62.11h1.636v.973h-5.622Z" fill="#005288"/>
                  <path id="Shape-6" data-name="Shape" d="M148.781,62.11h1.737V54.126h-1.737v-.973H152.7V62.11h1.686v.973h-5.608Zm3.928-11.962a1.313,1.313,0,1,1-1.313-1.314,1.313,1.313,0,0,1,1.313,1.314" fill="#005288"/>
                  <path id="Path-9" data-name="Path" d="M155.811,60h.524a2.823,2.823,0,0,0,2.614,2.381c1.043,0,1.756-.524,1.756-1.307,0-1.547-2.324-1.547-3.991-3.208a3,3,0,0,1-.948-2.091,3.12,3.12,0,0,1,3.278-2.924,3.741,3.741,0,0,1,1.971.568v-.543h.739v2.634h-.569a2.07,2.07,0,0,0-2.027-1.667,1.408,1.408,0,0,0-1.516,1.307c0,1.4,2.558,1.813,4.1,3.354a2.68,2.68,0,0,1,.828,1.945c0,1.737-1.371,2.924-3.367,2.924a4.536,4.536,0,0,1-2.526-.739l-.139.688h-.695Z" fill="#005288"/>
                  <path id="Path-10" data-name="Path" d="M163.339,54.126l3.568-3.676v2.7h2.779v.973h-2.779V59.88c0,1.566.424,2.305,1.333,2.305s1.421-.758,1.661-.758.24.183.24.3a2.741,2.741,0,0,1-2.615,1.642c-1.806,0-2.8-1.162-2.8-3.3V54.126Z" fill="#005288"/>
                  <path id="Path-11" data-name="Path" d="M171.436,62.11h1.781V54.126h-1.781v-.973H175.4v1.667h.051c1.187-1.478,1.781-1.952,2.419-1.952a2.2,2.2,0,0,1,1.686.947,6.959,6.959,0,0,1-.9,2.451c-.575-1.042-.9-1.4-1.573-1.4s-1.136.429-1.686,1.187V62.11h1.781v.973h-5.747Z" fill="#005288"/>
                  <path id="Shape-7" data-name="Shape" d="M185.6,58.408v2.659a2.687,2.687,0,0,1-1.617.739,1.262,1.262,0,0,1-1.263-1.333c0-.973.833-1.566,2.9-2.065M181.149,55.2a5.535,5.535,0,0,1,2.8-1.074c1.3,0,1.661.815,1.661,1.977v1.333l-2.186.543c-1.951.48-2.753,1.307-2.753,2.779a2.443,2.443,0,0,0,2.3,2.615c.859,0,1.711-.594,2.9-1.472.524,1.042,1.048,1.472,1.806,1.472a3.861,3.861,0,0,0,2.166-.808v-.67a8.966,8.966,0,0,1-1.023.139c-.594,0-1.023-.632-1.023-1.611V56.362c0-2.16-1.187-3.493-3.114-3.493a6.029,6.029,0,0,0-3.789,1.642Z" fill="#005288"/>
                  <path id="Path-12" data-name="Path" d="M190.055,54.126l3.562-3.676v2.7h2.8v.973h-2.779V59.88c0,1.566.423,2.305,1.333,2.305s1.427-.758,1.661-.758.24.183.24.3a2.742,2.742,0,0,1-2.615,1.642c-1.806,0-2.8-1.162-2.8-3.3V54.126Z" fill="#005288"/>
                  <path id="Shape-8" data-name="Shape" d="M197.773,62.11h1.736V54.126h-1.736v-.973H201.7V62.11h1.673v.973H197.76Zm3.934-11.962a1.314,1.314,0,1,1-1.32-1.314,1.332,1.332,0,0,1,1.32,1.314" fill="#005288"/>
                  <path id="Shape-9" data-name="Shape" d="M206.476,58.105c0-2.678,1.143-4.276,3.019-4.276s3.019,1.6,3.019,4.276-1.118,4.282-3.019,4.282-3.019-1.592-3.019-4.282m-2.444,0a5.469,5.469,0,1,0,5.463-5.249,5.3,5.3,0,0,0-5.463,5.249" fill="#005288"/>
                  <path id="Path-13" data-name="Path" d="M215.368,62.11h1.807V54.126h-1.807v-.973h3.992v1.118a6.209,6.209,0,0,1,3.682-1.4,2.618,2.618,0,0,1,2.729,2.905V62.09h1.762v.973h-5.514V62.11h1.566V56.267c0-1.352-.732-2.065-1.756-2.065a4.243,4.243,0,0,0-2.469,1.042V62.11h1.693v.973h-5.685Z" fill="#005288"/>
                  <path id="Path-14" data-name="Path" d="M86.463,21.872h1.97V10.465H84.777v1.951H83.59V8.091h1.187v.739H94.4V8.091h1.187v4.326H94.4V10.465h-3.65V21.872H92.71v1.187H86.463Z" fill="#005288"/>
                  <path id="Path-15" data-name="Path" d="M95.141,22.105h1.781v-8H95.141V13.13h3.966v1.661h.05c1.187-1.472,1.781-1.945,2.425-1.945a2.2,2.2,0,0,1,1.686.947,7.079,7.079,0,0,1-.9,2.45c-.568-1.048-.9-1.4-1.566-1.4s-1.143.423-1.686,1.181v6.082h1.781v.973H95.147Z" fill="#005288"/>
                  <path id="Shape-10" data-name="Shape" d="M108.783,18.379v2.659a2.67,2.67,0,0,1-1.61.739,1.264,1.264,0,0,1-1.264-1.333c0-.973.834-1.566,2.893-2.065m-4.484-3.221a5.591,5.591,0,0,1,2.8-1.067c1.307,0,1.661.808,1.661,1.971v1.333l-2.185.543c-1.945.48-2.754,1.307-2.754,2.779a2.444,2.444,0,0,0,2.305,2.653c.859,0,1.712-.594,2.9-1.472.525,1.042,1.049,1.472,1.8,1.472a3.792,3.792,0,0,0,2.167-.808v-.632a8.667,8.667,0,0,1-1.023.145c-.588,0-1.017-.632-1.017-1.623V16.333c0-2.16-1.188-3.486-3.114-3.486a6.079,6.079,0,0,0-3.789,1.636Z" fill="#005288"/>
                  <path id="Path-16" data-name="Path" d="M113.684,22.105h1.807v-8h-1.807V13.13h3.985v1.112a6.217,6.217,0,0,1,3.683-1.4,2.62,2.62,0,0,1,2.741,2.893v6.366h1.762v.973h-5.52v-.973h1.56V16.244c0-1.358-.739-2.072-1.762-2.072a4.229,4.229,0,0,0-2.476,1.049v6.884H119.3v.973h-5.615Z" fill="#005288"/>
                  <path id="Path-17" data-name="Path" d="M126.808,20h.518a2.831,2.831,0,0,0,2.621,2.375c1.042,0,1.756-.524,1.756-1.307,0-1.547-2.33-1.547-3.991-3.208a2.956,2.956,0,0,1-.954-2.065,3.123,3.123,0,0,1,3.284-2.918,3.7,3.7,0,0,1,1.971.568v-.549h.732v2.64h-.568a2.072,2.072,0,0,0-2.04-1.686,1.4,1.4,0,0,0-1.522,1.314c0,1.4,2.57,1.8,4.111,3.347a2.685,2.685,0,0,1,.834,1.951c0,1.731-1.383,2.918-3.379,2.918a4.539,4.539,0,0,1-2.526-.733l-.146.688h-.688Z" fill="#005288"/>
                  <path id="Shape-11" data-name="Shape" d="M137.867,15.221c.828-.979,1.377-1.307,2.205-1.307,1.686,0,2.753,1.756,2.753,4.585,0,2.185-.922,3.872-2.583,3.872a2.894,2.894,0,0,1-2.375-1.421ZM133.9,28.288h5.356v-.973h-1.409V22.51a4.175,4.175,0,0,0,2.609.859c3.682,0,4.825-3.013,4.825-5.413,0-3.663-2.47-5.053-4.465-5.053a3.974,3.974,0,0,0-1.548.284,4.394,4.394,0,0,0-1.4.973V13.13H133.9V14.1h1.756V27.316H133.9Z" fill="#005288"/>
                  <path id="Shape-12" data-name="Shape" d="M149,18.095c0-2.684,1.143-4.276,3.019-4.276s3.019,1.592,3.019,4.276-1.118,4.276-3.019,4.276S149,20.779,149,18.095m-2.444,0a5.469,5.469,0,1,0,5.463-5.248,5.3,5.3,0,0,0-5.463,5.248" fill="#005288"/>
                  <path id="Path-18" data-name="Path" d="M158.627,22.105h1.794v-8H158.64V13.13h3.966v1.661h.051c1.187-1.472,1.775-1.945,2.419-1.945a2.2,2.2,0,0,1,1.686.947,7.1,7.1,0,0,1-.9,2.45c-.568-1.048-.9-1.4-1.566-1.4s-1.144.423-1.687,1.181v6.082h1.781v.973H158.64Z" fill="#005288"/>
                  <path id="Path-19" data-name="Path" d="M167.792,14.1l3.562-3.682V13.13h2.779V14.1h-2.779v5.747c0,1.566.429,2.305,1.332,2.305s1.428-.764,1.661-.764.24.2.24.309a2.74,2.74,0,0,1-2.614,1.642c-1.807,0-2.805-1.162-2.805-3.3V14.1Z" fill="#005288"/>
                  <path id="Shape-13" data-name="Shape" d="M180.455,18.379v2.659a2.7,2.7,0,0,1-1.617.739,1.262,1.262,0,0,1-1.263-1.333c0-.973.833-1.566,2.9-2.065m-4.491-3.221a5.608,5.608,0,0,1,2.811-1.067c1.3,0,1.661.808,1.661,1.971v1.333l-2.192.543c-1.945.48-2.754,1.307-2.754,2.779a2.446,2.446,0,0,0,2.306,2.653c.859,0,1.711-.594,2.9-1.472.549,1.017,1.048,1.472,1.812,1.472a3.786,3.786,0,0,0,2.16-.808v-.632a8.637,8.637,0,0,1-1.023.145c-.587,0-1.017-.632-1.017-1.623V16.333c0-2.16-1.187-3.486-3.113-3.486a6.053,6.053,0,0,0-3.79,1.636Z" fill="#005288"/>
                  <path id="Path-20" data-name="Path" d="M185.141,14.1l3.562-3.682V13.13h2.779V14.1H188.7v5.747c0,1.566.423,2.305,1.326,2.305s1.428-.764,1.668-.764c.139,0,.234.2.234.309a2.735,2.735,0,0,1-2.609,1.642c-1.806,0-2.8-1.162-2.8-3.3V14.1Z" fill="#005288"/>
                  <path id="Shape-14" data-name="Shape" d="M192.859,22.105H194.6v-8h-1.737V13.13h3.916v8.975h1.692v.973h-5.608Zm3.928-12a1.314,1.314,0,1,1-1.32-1.314,1.332,1.332,0,0,1,1.32,1.314" fill="#005288"/>
                  <path id="Shape-15" data-name="Shape" d="M202.244,18.095c0-2.684,1.137-4.276,3.013-4.276s3.019,1.592,3.019,4.276-1.118,4.276-3.013,4.276-3.012-1.592-3.012-4.276m-2.451,0a5.47,5.47,0,1,0,5.463-5.248,5.3,5.3,0,0,0-5.463,5.248" fill="#005288"/>
                  <g id="Group">
                    <path id="Path-21" data-name="Path" d="M211.838,22.105h1.806v-8h-1.806V13.13h3.991v1.112a6.217,6.217,0,0,1,3.683-1.4,2.617,2.617,0,0,1,2.734,2.893v6.366H224v.973h-5.514v-.973h1.573V16.244c0-1.358-.739-2.072-1.756-2.072a4.235,4.235,0,0,0-2.476,1.049v6.884h1.643v.973h-5.634Z" fill="#005288"/>
                    <path id="Path-22" data-name="Path" d="M72.322,35.842A35.848,35.848,0,1,1,36.474,0,35.848,35.848,0,0,1,72.322,35.842" fill="#fff"/>
                  </g>
                  <path id="Path-23" data-name="Path" d="M58.257,22.971a9.919,9.919,0,0,1-1.194.328A24.1,24.1,0,1,1,16.2,22.825a8.086,8.086,0,0,1-1.137-.436,25.263,25.263,0,1,0,43.194.581" fill="#c41230"/>
                  <path id="Path-24" data-name="Path" d="M22.472,16.238A24.1,24.1,0,0,1,51.84,17.274c.467-.133.928-.253,1.4-.373a25.263,25.263,0,0,0-32.084-1.175l.632.227c.24.088.48.183.707.284" fill="#c41230"/>
                  <path id="Shape-16" data-name="Shape" d="M36.474,0A35.842,35.842,0,1,0,61.822,10.5,35.848,35.848,0,0,0,36.474,0m0,69.474a33.625,33.625,0,1,1,23.783-9.849,33.625,33.625,0,0,1-23.783,9.849" fill="#c0c2c4"/>
                  <path id="Path-25" data-name="Path" d="M27.827,28.661a6.5,6.5,0,0,1-1.434-1,4.232,4.232,0,0,1-1.453-4.566c.272-1.01.688-1.516.543-2.564a2.652,2.652,0,0,0-.928-1.5A10.155,10.155,0,0,0,20.5,16.819c-1.112-.373-4.345-1.377-5.773-2.665a1.977,1.977,0,0,0,1.187,2.381,2.3,2.3,0,0,0-1.636.865,3.947,3.947,0,0,0,2.526,1.314,4.06,4.06,0,0,0-1.1,1.213,6.221,6.221,0,0,0,2.994.695,4.458,4.458,0,0,0-.985,1.111,10.067,10.067,0,0,0,3.126.815A5.357,5.357,0,0,0,19.459,24a12.63,12.63,0,0,0,3.051.575A4.844,4.844,0,0,0,20.8,26.223a7.163,7.163,0,0,0,2.912.632,4.137,4.137,0,0,0-1.023,1.623,7.354,7.354,0,0,0,2.526.038,4.731,4.731,0,0,0-.872,2.349,5.5,5.5,0,0,0,2.482-.632,3.076,3.076,0,0,0,.126,1.895,4.015,4.015,0,0,0,1.023-.4c-.057-1.074-.1-2.179-.133-3.088" fill="#005288"/>
                  <path id="Path-26" data-name="Path" d="M58.737,15.9c-1.434,1.263-3.714,1.636-6.114,2.425a12.3,12.3,0,0,0-4.541,2.236,2.059,2.059,0,0,0-.853,1.832c.057,1.036.221,1.484.253,2.924a3.473,3.473,0,0,1-.771,2.343,5.76,5.76,0,0,1-1.579,1.263c-.031.878-.076,1.762-.12,2.785a5.293,5.293,0,0,0,1.156.461,3.158,3.158,0,0,0,.126-1.895,5.476,5.476,0,0,0,2.482.632,4.8,4.8,0,0,0-.878-2.35,7.347,7.347,0,0,0,2.526-.038,4.05,4.05,0,0,0-1.017-1.623,7.08,7.08,0,0,0,2.912-.631,4.939,4.939,0,0,0-1.705-1.642A13.044,13.044,0,0,0,53.684,24a5.5,5.5,0,0,0-1.44-1.446,10.1,10.1,0,0,0,3.12-.815,4.584,4.584,0,0,0-.985-1.111,7.712,7.712,0,0,0,2.994-.695,4.15,4.15,0,0,0-1.1-1.213c2.413-.669,2.457-1.895,2.463-2.817" fill="#005288"/>
                  <path id="Path-27" data-name="Path" d="M48.549,18.448a21.19,21.19,0,0,0-23.223-.632,3.493,3.493,0,0,1,1.459,2.059,4.782,4.782,0,0,1-.183,2.488,3.736,3.736,0,0,0,.265,3.606,4.6,4.6,0,0,0,2.912,1.895c1.213-.215,2.558-.392,3.9-.5a3.366,3.366,0,0,1,1.213-1.459,1.08,1.08,0,0,0,.41-1.5,1.661,1.661,0,0,0-.8-.764c-.335-.177-1.579-.3-1.541.486a1.352,1.352,0,0,1-.246-1.175c.164-.688,1.295-.865,1.579-.846-.221-.183-.082-.48.41-.632a5.913,5.913,0,0,1,1.724-.177,2.223,2.223,0,0,1,1.895.815c.695.632,1.61.834,1.977.461a1.623,1.623,0,0,1-1.611.815,12.136,12.136,0,0,1,.442,2.387c.038.392.12,1.042.227,1.579a43.159,43.159,0,0,1,4.377.594,3.4,3.4,0,0,0,1.636-1.08,3.5,3.5,0,0,0,.752-3.069,21.046,21.046,0,0,1-.278-2.33c.082-1.383,1.105-2.286,2.709-3.013" fill="#005288"/>
                  <path id="Path-28" data-name="Path" d="M34.478,22.225c.208.164.328.183.4.164s.069.088.088.107a.24.24,0,0,1,.082.12c.095-.044.347-.145.575-.227s.562-.177.562-.177c-1-.215-1.156.095-1.712,0" fill="#005288"/>
                  <path id="Path-29" data-name="Path" d="M36.474,46.5h-.227a1.762,1.762,0,0,0-1.383-1.383c-.575-.177-1.409-.448-3.19-.992a4.57,4.57,0,0,1-3.253-4.383c-.2-2.943-.5-8.122-.632-11.419A40.2,40.2,0,0,1,36.448,27.3a40.25,40.25,0,0,1,8.659,1.023c-.107,3.3-.4,8.476-.632,11.419a4.574,4.574,0,0,1-3.259,4.383c-1.775.543-2.608.815-3.158.992A1.762,1.762,0,0,0,36.676,46.5h-.227" fill="#fff"/>
                  <path id="Path-30" data-name="Path" d="M35.88,38.975l-.417-.215-.278-.707-.632-.271-.695-.632-.417.461-.632.139-.322.524-.5.53-.644.354-.467.8-.265.347-.461.36-.253-.272-.265.259-.341.632a4.724,4.724,0,0,1-.335-1.573c-.1-1.389-.2-3.126-.3-4.907a40.275,40.275,0,0,1,7.579-.84v5.394a.631.631,0,0,1-.328-.379" fill="#0078ae"/>
                  <path id="Path-31" data-name="Path" d="M36.208,41.57h-6.79a4.537,4.537,0,0,0,.341.594,3.916,3.916,0,0,0,2.078,1.465c1.2.366,1.958.632,2.526.783l.663.208a2.777,2.777,0,0,1,1.187.682Z" fill="#5e9732"/>
                  <path id="Path-32" data-name="Path" d="M43.389,38.95a2.254,2.254,0,0,1,.682-.423c.038-.632.082-1.307.12-2.008a1.727,1.727,0,0,0-.246.19,2.148,2.148,0,0,1-1.44.556,2.584,2.584,0,0,1-1.453-.48,1.508,1.508,0,0,0-.84-.309,2.066,2.066,0,0,0-1.017.385,2.426,2.426,0,0,1-1.263.461A2.33,2.33,0,0,1,36.739,37v1.895c.076.038.139.082.2.12a1.358,1.358,0,0,0,1.806,0,2.785,2.785,0,0,1,1.465-.486,2.325,2.325,0,0,1,1.3.442,1.724,1.724,0,0,0,.992.347,1.263,1.263,0,0,0,.884-.392" fill="#005288"/>
                  <path id="Path-33" data-name="Path" d="M37.926,43.295a2.286,2.286,0,0,1-1.187-.347v2.337a2.78,2.78,0,0,1,1.187-.682l.663-.208c.556-.177,1.32-.417,2.526-.783a4.27,4.27,0,0,0,.96-.429,2.958,2.958,0,0,1-1.023-.423,1.516,1.516,0,0,0-.84-.316,2.072,2.072,0,0,0-1.017.392,2.482,2.482,0,0,1-1.263.461" fill="#005288"/>
                  <path id="Path-34" data-name="Path" d="M43.389,36a2.071,2.071,0,0,1,.859-.474,4.148,4.148,0,0,1,.044-.739,40.807,40.807,0,0,0-7.579-.84V36l.2.12a1.731,1.731,0,0,0,.992.354,1.8,1.8,0,0,0,.815-.335,2.741,2.741,0,0,1,1.472-.518,2.374,2.374,0,0,1,1.3.442,1.73,1.73,0,0,0,.992.354,1.263,1.263,0,0,0,.9-.417" fill="#0078ae"/>
                  <path id="Path-35" data-name="Path" d="M36.733,39.96v1.983c.076.038.139.082.2.12a1.73,1.73,0,0,0,.992.354,1.749,1.749,0,0,0,.815-.341,2.785,2.785,0,0,1,1.472-.512,2.325,2.325,0,0,1,1.3.442,1.724,1.724,0,0,0,.992.347,1.118,1.118,0,0,0,.739-.278A4.8,4.8,0,0,0,44,39.707a.729.729,0,0,1,0-.12l-.057.044a2.115,2.115,0,0,1-1.44.587,2.526,2.526,0,0,1-1.453-.48,1.554,1.554,0,0,0-.84-.309,2.013,2.013,0,0,0-1.017.392,2.482,2.482,0,0,1-1.263.461,2.414,2.414,0,0,1-1.194-.322" fill="#0078ae"/>
                  <path id="Path-36" data-name="Path" d="M28.629,34.282c-.107-1.99-.208-3.985-.259-5.564a40.32,40.32,0,0,1,8.1-.928,40.419,40.419,0,0,1,8.109.9c-.057,1.579-.152,3.575-.265,5.564a40.735,40.735,0,0,0-7.844-.783,40.725,40.725,0,0,0-7.844.84" fill="#005288"/>
                  <path id="Path-37" data-name="Path" d="M30.208,30.032l.095-.43-.4-.177.436-.044.044-.436.177.4.423-.089-.322.291.215.385-.373-.221Z" fill="#fff"/>
                  <path id="Path-38" data-name="Path" d="M32.855,29.678l-.366-.234-.3.309.107-.423-.385-.2.429-.025.063-.43.164.4.423-.069-.335.278Z" fill="#fff"/>
                  <path id="Path-39" data-name="Path" d="M34.838,29.533l-.354-.259-.316.3.126-.417-.373-.215.43-.006.088-.429.133.417.43-.051-.341.259Z" fill="#fff"/>
                  <path id="Path-40" data-name="Path" d="M36.821,29.488l-.341-.278-.335.278.158-.417-.366-.234.436.019.107-.417.12.417.43-.019-.366.234Z" fill="#fff"/>
                  <path id="Path-41" data-name="Path" d="M42.467,29.709l-.373.221.215-.379-.322-.3.423.089.177-.392.044.43.43.044-.392.183.088.423Z" fill="#fff"/>
                  <path id="Path-42" data-name="Path" d="M40.307,29.293l-.335-.278.43.069.158-.4.069.43.429.025-.385.2.107.423-.31-.309-.36.24Z" fill="#fff"/>
                  <path id="Path-43" data-name="Path" d="M38.305,29.135l-.347-.265.436.051.139-.417.082.429.436.006-.379.215.133.417-.322-.3-.354.259Z" fill="#fff"/>
                  <path id="Path-44" data-name="Path" d="M30.5,33.24l.089-.423-.392-.183.429-.044.051-.43.17.4.423-.088-.322.3.215.379-.373-.221Z" fill="#fff"/>
                  <path id="Path-45" data-name="Path" d="M33.069,32.918l-.36-.24-.309.31.114-.423-.385-.2.43-.019.069-.436.158.411.423-.063-.335.272Z" fill="#fff"/>
                  <path id="Path-46" data-name="Path" d="M34.977,32.779l-.354-.259-.316.3.133-.417-.379-.221h.429l.088-.429.139.417.43-.051-.347.265Z" fill="#fff"/>
                  <path id="Path-47" data-name="Path" d="M36.884,32.747l-.335-.278-.341.278.158-.411-.36-.24.429.019.114-.417.114.417.429-.019-.36.24Z" fill="#fff"/>
                  <path id="Path-48" data-name="Path" d="M42.31,32.943l-.373.221.215-.379-.322-.291.423.088.177-.4.044.436.429.044-.392.183.088.423Z" fill="#fff"/>
                  <path id="Path-49" data-name="Path" d="M40.225,32.539l-.335-.271.43.069.152-.41.069.43.436.025-.391.2.114.423-.309-.31-.366.234Z" fill="#fff"/>
                  <path id="Path-50" data-name="Path" d="M38.3,32.387l-.347-.259.43.051.139-.417.088.423.43.006-.379.215.133.423-.322-.3-.354.253Z" fill="#fff"/>
                  <path id="Path-51" data-name="Path" d="M31.446,31.345l.1-.423-.392-.19.436-.038.057-.429.164.4.423-.076-.328.284.2.385-.366-.234Z" fill="#fff"/>
                  <path id="Path-52" data-name="Path" d="M29.545,31.648l.088-.429-.4-.177.43-.051.044-.436.177.4.423-.095-.316.3.215.379-.373-.221Z" fill="#fff"/>
                  <path id="Path-53" data-name="Path" d="M34.011,31.08l-.354-.246-.316.3.12-.423-.379-.208.43-.013.082-.429.145.41.43-.057-.341.272Z" fill="#fff"/>
                  <path id="Path-54" data-name="Path" d="M35.912,30.985l-.347-.265-.322.291.139-.41-.373-.227.436.006.095-.429.133.423.43-.038-.36.253Z" fill="#fff"/>
                  <path id="Path-55" data-name="Path" d="M37.813,31.017l-.328-.291-.341.265.164-.4-.354-.253.43.038.126-.423.1.429.43-.006-.366.227Z" fill="#fff"/>
                  <path id="Path-56" data-name="Path" d="M43.219,31.333l-.379.215.221-.379-.31-.3.417.095.183-.392.038.436.429.057-.4.17.082.43Z" fill="#fff"/>
                  <path id="Path-57" data-name="Path" d="M41.147,30.89l-.335-.284.43.076.164-.4.057.436.436.032-.391.189.1.43-.3-.322-.373.234Z" fill="#fff"/>
                  <path id="Path-58" data-name="Path" d="M39.227,30.695l-.341-.271.43.063.145-.417.076.436.436.013-.385.2.12.423-.31-.3-.36.246Z" fill="#fff"/>
                  <path id="Path-59" data-name="Path" d="M59.267,38.779l-1.75.543.392.164-.632.385c.069-.354.126-.714.177-1.08l.96-.8v.423l1.08-1.478-1.667.764.417.107-.771.632c.05-.436.095-.884.12-1.333l.947-1.055.082.423.872-1.617-1.554.985.429.051-.758.808v-.84a21.02,21.02,0,0,0-.89-6.082,7.888,7.888,0,0,1-2.381-.309,3.385,3.385,0,0,1,1.838,2.394A4.03,4.03,0,0,1,53.16,31.2a3.606,3.606,0,0,1,1.181,2.583,3.562,3.562,0,0,1-2.552-1.112,3.935,3.935,0,0,1,.872,2.627,3.953,3.953,0,0,1-2.387-1.307,5.514,5.514,0,0,1,.632,2.684,3.991,3.991,0,0,1-2.274-1.118,5.437,5.437,0,0,1,.417,2.564,3.587,3.587,0,0,1-2.16-1.648,4.56,4.56,0,0,1,.278,2.482,2.829,2.829,0,0,1-1.794-1.579A3.872,3.872,0,0,1,45.6,39.84a2.128,2.128,0,0,1-1.036-.568v.467a5.8,5.8,0,0,1-.354,1.686c.069.076.227.265.234.278a4.044,4.044,0,0,0,1.491,1.048c-.2,0-.48.2-.751.24.309.347.935.423,1.32.821-.3.038-.373.253-.739.215a3.032,3.032,0,0,0,1.7.632,3.853,3.853,0,0,0,.916,0,1.717,1.717,0,0,1,1.03.246.631.631,0,0,1,.189.688.486.486,0,0,1-.272.335c-.107.038-.183.044-.069-.038a.562.562,0,0,0-.038-.707,1.143,1.143,0,0,0-.7-.215,9.874,9.874,0,0,1-1.029,0c-.215,0-.347.259-.385.379-.076.278-.164.632-.569.455-.5-.291-1.213-.265-2.027-.594.114.246.063.467.189.745-.726-.177-.916-.549-1.611-.79.12.253.088.448.246.688-.587-.1-1.137-.632-1.951-.846h-.069l-.815.246a5.52,5.52,0,0,1,1.263,2.425,3.014,3.014,0,0,1-1-.2,5.739,5.739,0,0,1,.284,1.705,3.613,3.613,0,0,1-1.08-.474,6.131,6.131,0,0,1-.107,1.819A3.827,3.827,0,0,1,38.7,49.68a6.317,6.317,0,0,1-.48,1.787,4.175,4.175,0,0,1-.96-1.093,6.95,6.95,0,0,1-.878,1.737,4.691,4.691,0,0,1-.884-1.661,4.017,4.017,0,0,1-.922,1.017,6.513,6.513,0,0,1-.474-1.794,3.853,3.853,0,0,1-1.169.853,6.127,6.127,0,0,1-.095-1.787,3.674,3.674,0,0,1-1.086.474,5.739,5.739,0,0,1,.29-1.705,3.04,3.04,0,0,1-1,.2,5.936,5.936,0,0,1,1.307-2.463h0l-.688-.208h-.076c-.815.221-1.358.745-1.945.846.158-.24.126-.436.24-.688-.695.24-.878.632-1.6.789.126-.278.076-.5.189-.745a9.948,9.948,0,0,1-2.008.632c-.448.095-.48-.575-.632-.726a1.18,1.18,0,0,0-.581-.069,7.074,7.074,0,0,1-.985,0,1.13,1.13,0,0,0-.726.221c-.234.171-.126.632,0,.72s.044.076-.076.044a.512.512,0,0,1-.271-.341.631.631,0,0,1,.183-.688,1.768,1.768,0,0,1,1.029-.24,4.091,4.091,0,0,0,.91,0,4.6,4.6,0,0,0,1.895-.745c-.366.038-.442-.177-.745-.215.392-.4,1.017-.474,1.326-.821-.272-.038-.518-.259-.72-.284a5.425,5.425,0,0,0,1.484-1.042l.227-.272a5.8,5.8,0,0,1-.354-1.674v-.455a2.482,2.482,0,0,1-.966.518,4.048,4.048,0,0,1,.177-2.463,2.81,2.81,0,0,1-1.737,1.636,4.478,4.478,0,0,1,.2-2.526A3.562,3.562,0,0,1,24,38.192a5.685,5.685,0,0,1,.354-2.634,3.954,3.954,0,0,1-2.248,1.118,5.438,5.438,0,0,1,.631-2.684A4.112,4.112,0,0,1,20.211,35.2a7.8,7.8,0,0,1,.916-2.438,4.939,4.939,0,0,1-2.564,1.03,4.977,4.977,0,0,1,1.175-2.583,4.32,4.32,0,0,1-2.905.777,3.941,3.941,0,0,1,1.6-2.394,7.442,7.442,0,0,1-2.255.2,21.313,21.313,0,0,0-.891,5.987c-.48-.379-.815-.474-1.143-.8.063.448.12.695.17,1.263a2.23,2.23,0,0,0,1.093,1.933c.038.284.069.568.114.853a3.347,3.347,0,0,0-1.895-.474c.5,1.629,1.219,1.749,2.179,1.895.032.145.063.3.1.448a3.48,3.48,0,0,0-1.825.05,2.969,2.969,0,0,0,2.192,1.377h0a3.74,3.74,0,0,0-1.939.335,3.094,3.094,0,0,0,2.375.928l.12.3a3.379,3.379,0,0,0-1.427.758,4.655,4.655,0,0,0,1.895.246v.044a2.438,2.438,0,0,0-.827,1.352c.448-.114.91-.139,1.371-.278.095.171.19.341.291.512a2.444,2.444,0,0,0-.189,1.686,2.6,2.6,0,0,0,.973-.436c.088.139.183.272.278.4a2.526,2.526,0,0,0,.512,1.977,4.294,4.294,0,0,0,.442-.581c.96-1.459.379-2.526.4-3.455v-.057c.076,1.124,1.055,2.236-.088,3.6a.712.712,0,0,1-.069.069,21.2,21.2,0,0,0,35.968-6.5l.966-.417-.076.417,1.389-1.2-1.8.373.379.2-.745.3c.133-.373.259-.745.366-1.131l1.055-.581v.423l1.263-1.32-1.756.531.4.164-.846.467c.114-.417.215-.834.3-1.263l.8-.512-.038.43Z" fill="#005288"/>
                  <path id="Path-60" data-name="Path" d="M25.314,46.5a7.579,7.579,0,0,1,2.956,4.554,1.415,1.415,0,0,0-.872-.278,5.861,5.861,0,0,0-2.28-3.789,1.478,1.478,0,0,1,.2-.5" fill="#fff"/>
                  <path id="Path-61" data-name="Path" d="M24,47.855c.41.158.632.1.72-.044a.632.632,0,0,0,0-.8,1,1,0,0,1,0,.411.279.279,0,0,1-.316.291,1.263,1.263,0,0,1-.474-.164c-.095-.063-.095-.227-.044-.36a.493.493,0,0,1,.145-.24.746.746,0,0,0-.335.2.278.278,0,0,1-.366,0,1.165,1.165,0,0,1-.221-.316c-.1-.221.183-.379.354-.467-.291,0-.341.114-.575.069s-.29-.417-.29-.537.114-.177.253-.208a1.229,1.229,0,0,1,.366,0,.671.671,0,0,1,0-.2,1.03,1.03,0,0,0-.777.152c-.107.164-.082.253,0,.543s.152.385.335.41a.556.556,0,0,0,.259,0,.252.252,0,0,0-.126.139c-.032.076-.082.2.139.467s.385.328.543.24a.593.593,0,0,0,.17-.152,1.428,1.428,0,0,0-.069.2c-.044.227.133.316.347.4" fill="#fff"/>
                  <path id="Path-62" data-name="Path" d="M23.691,46.055a.486.486,0,0,1,.568-.063,1.074,1.074,0,0,0-.063.72.632.632,0,0,1-.505-.632" fill="#fff"/>
                  <path id="Path-63" data-name="Path" d="M24.328,46.036a.385.385,0,0,0,.373-.253c.044-.114.17-.189.177,0s0,.253-.1.3a.5.5,0,0,1-.448,0" fill="#fff"/>
                  <path id="Path-64" data-name="Path" d="M24.455,46.415a.9.9,0,0,1-.152.36,1.262,1.262,0,0,1-.208.2.632.632,0,0,0,.392.12c.133,0,.139,0,.133-.076a2.434,2.434,0,0,0-.164-.632" fill="#fff"/>
                  <path id="Path-65" data-name="Path" d="M48.512,45.846a1.106,1.106,0,0,1,.057.72.632.632,0,0,0,.505-.632.474.474,0,0,0-.562-.063" fill="#fff"/>
                  <path id="Path-66" data-name="Path" d="M48.436,45.884a.366.366,0,0,1-.373-.253c-.044-.114-.171-.183-.171,0s0,.253.095.3a.486.486,0,0,0,.448-.038" fill="#fff"/>
                  <path id="Path-67" data-name="Path" d="M48.461,46.63a.921.921,0,0,1-.152-.366,2.882,2.882,0,0,0-.158.632c0,.051,0,.069.126.076a.632.632,0,0,0,.4-.126.876.876,0,0,1-.215-.2" fill="#fff"/>
                  <path id="Path-68" data-name="Path" d="M55.579,40.156l.417.107-6.208,4.907h0l-.145.114h0a1.05,1.05,0,0,1,0,.2,1.335,1.335,0,0,1,.309,0c.133.032.246.126.24.215s-.069.5-.3.531-.284-.076-.575-.088c.164.088.448.265.347.486a1.452,1.452,0,0,1-.234.3.271.271,0,0,1-.366,0,.841.841,0,0,0-.328-.2.487.487,0,0,1,.133.24c.05.139.044.3-.051.366a1.193,1.193,0,0,1-.48.145c-.227,0-.284-.177-.3-.3a.866.866,0,0,1,0-.4.631.631,0,0,0-.051.8c.095.145.3.208.72.063.221-.082.392-.164.36-.4a.787.787,0,0,0-.063-.2.632.632,0,0,0,.164.152c.152.095.347,0,.549-.215a.459.459,0,0,0,.152-.467.278.278,0,0,0-.12-.145.576.576,0,0,0,.253,0c.189,0,.253-.12.347-.4s.126-.379,0-.549a.632.632,0,0,0-.36-.158L56.141,40.4v.423l1.105-1.465Z" fill="#fff"/>
                  <path id="Path-69" data-name="Path" d="M52.244,41.684l4.377-5.539.114.41.739-1.705-1.459,1.112h.423l-3.954,5.021c-.316.467-.632.973-.954,1.44h0l.714-.739" fill="#fff"/>
                  <path id="Path-70" data-name="Path" d="M51.726,43.307l1.124-.891,3.644-3.373.051.423.985-1.573-1.617.872.417.082L52.68,42.234l-.954,1.074" fill="#fff"/>
                  <path id="Path-71" data-name="Path" d="M55.768,42.512l-5.128,2.57-.208.164a.252.252,0,0,1,.088.095v.044l5.33-2.665-.069.423,1.383-1.206-1.775.379Z" fill="#fff"/>
                  <path id="Path-72" data-name="Path" d="M48,47.943a.582.582,0,0,1-.2-.114l-.916,1.895h0l-.328.114-1.08,2.09L46,51.771l.2.512,1.03-2.1-.12-.347Z" fill="#fff"/>
                  <path id="Path-73" data-name="Path" d="M51.594,44.331l1.175-.587,3.442-2.229v.43l1.263-1.364-1.737.587.4.152-3.707,2.425-.745.587" fill="#fff"/>
                  <path id="Path-74" data-name="Path" d="M47.6,47.438a.886.886,0,0,1,0-.316l-1.225,1.333h-.354l-1.75,1.756h.512l.069.411,1.409-1.844.271-.057Z" fill="#fff"/>
                  <path id="Path-75" data-name="Path" d="M49.844,44.785l.632-.486,5.987-6.549.082.423.859-1.623-1.541,1,.429.05-6.278,6.853c-.057.12-.114.234-.171.335" fill="#fff"/>
                  <path id="Path-76" data-name="Path" d="M44.488,49.263l2.248-1.573L47.368,47,44.577,48.84h0l-.366-.069L44,48.9l-1.787,1.118.505.1.057.379,1.434-1.232Z" fill="#fff"/>
                  <path id="Path-77" data-name="Path" d="M42.638,49.465l.9-.556.834-.568.284.057s2.034-1.263,2.526-1.573h.038l-2.672,1.333L44.21,48l-2.122,1,.48.177Z" fill="#fff"/>
                  <path id="Path-78" data-name="Path" d="M52.7,37.15l.423-.069-3.859,7.762.082.044a.383.383,0,0,1,.107.095l3.853-7.8.2.379.373-1.8Z" fill="#fff"/>
                  <path id="Path-79" data-name="Path" d="M53.16,38.457h.43l-2.432,3.632-.777,1.617.038-.044,3.366-5.091.145.4.594-1.705Z" fill="#fff"/>
                  <path id="Path-80" data-name="Path" d="M17.886,43.061h0a2.684,2.684,0,0,0-1.97-.36,7.28,7.28,0,0,1,1.99.379" fill="#fff"/>
                  <path id="Path-81" data-name="Path" d="M18.316,47.564a3.158,3.158,0,0,1,1.1-1.838c.417-.347.632-.474.3-.107a10.445,10.445,0,0,0-1.4,1.945" fill="#fff"/>
                  <path id="Path-82" data-name="Path" d="M19.579,49.263a3.247,3.247,0,0,1,.215-2.109,3.694,3.694,0,0,1,.739-1.118,8.844,8.844,0,0,0-.954,3.227" fill="#fff"/>
                  <path id="Path-83" data-name="Path" d="M17.684,41.179a.4.4,0,1,0-.316.48.41.41,0,0,0,.316-.48" fill="#fff"/>
                  <path id="Path-84" data-name="Path" d="M21.183,41.735a16.425,16.425,0,0,1,0-1.933,2.987,2.987,0,0,0-1.118,3.493h-.152a.429.429,0,0,0-.328.5.419.419,0,0,0,.821-.171.4.4,0,0,0-.177-.265,3.234,3.234,0,0,1,.461-2.64,7.706,7.706,0,0,0-.259,2.994,3.248,3.248,0,0,0,.455-.632,2.352,2.352,0,0,0,.139.562,2.867,2.867,0,0,1,1.263-2.451,5.552,5.552,0,0,0-1.181,2.69c.505-.632,1.655-.834,1.737-3.347a3.158,3.158,0,0,0-1.68,1.225" fill="#fff"/>
                  <path id="Path-85" data-name="Path" d="M21.979,44.324a.436.436,0,0,0-.512-.347.439.439,0,1,0,.512.347" fill="#fff"/>
                  <path id="Path-86" data-name="Path" d="M21.827,45.644a.442.442,0,0,0-.518-.341.436.436,0,0,0-.335.518.43.43,0,0,0,.512.341.436.436,0,0,0,.341-.518" fill="#fff"/>
                  <path id="Path-87" data-name="Path" d="M19.288,39.189a2.773,2.773,0,0,0-1.036,2.526.208.208,0,0,0-.107,0,.328.328,0,0,0-.265.392.335.335,0,0,0,.4.271.308.308,0,0,0,.114-.05,2.683,2.683,0,0,0,.328.632,4.834,4.834,0,0,1-.17-.89.3.3,0,0,0,0-.107h0A2.949,2.949,0,0,1,19,40.029a11.138,11.138,0,0,0-.126,3.158c.259-.973,1.655-1.4.43-3.947" fill="#fff"/>
                  <path id="Path-88" data-name="Path" d="M22.851,44.918a.341.341,0,1,0-.265.4.341.341,0,0,0,.265-.4" fill="#fff"/>
                  <path id="Path-89" data-name="Path" d="M20.968,44.842a.316.316,0,1,0-.246.366.309.309,0,0,0,.246-.366" fill="#fff"/>
                  <path id="Path-90" data-name="Path" d="M16.68,40.541a.29.29,0,0,0-.284-.24,2.993,2.993,0,0,0-2.128-1.345,9.471,9.471,0,0,1,2.053,1.352.29.29,0,0,0-.215.328.3.3,0,0,0,.335.24.29.29,0,0,0,.24-.335" fill="#fff"/>
                  <path id="Path-91" data-name="Path" d="M16.693,38.526a.366.366,0,0,0-.436-.29h0a3.455,3.455,0,0,0-1.528-2.394,14.675,14.675,0,0,1,1.491,2.406.374.374,0,1,0,.2.72.366.366,0,0,0,.284-.43" fill="#fff"/>
                  <path id="Path-92" data-name="Path" d="M17.773,42.215a.284.284,0,0,0-.335-.234.334.334,0,0,0-.19.107,2.88,2.88,0,0,0-2.09-.853,8.716,8.716,0,0,1,2.053.9.279.279,0,0,0,0,.177.284.284,0,0,0,.335.24.291.291,0,0,0,.24-.335" fill="#fff"/>
                  <path id="Path-93" data-name="Path" d="M18.562,43.389a.417.417,0,1,0-.328.493.423.423,0,0,0,.328-.493" fill="#fff"/>
                  <path id="Path-94" data-name="Path" d="M19.168,44.11a.29.29,0,0,0-.335-.234.3.3,0,0,0-.221.164,4,4,0,0,0-2.451.423,12,12,0,0,1,2.438-.379h0a.278.278,0,0,0,0,.126.292.292,0,1,0,.575-.1" fill="#fff"/>
                  <path id="Path-95" data-name="Path" d="M20.008,44.6a.379.379,0,0,0-.448-.29.373.373,0,0,0-.29.442h-.032a2.868,2.868,0,0,0-2.229.872,7.338,7.338,0,0,1,2.248-.84h0a.373.373,0,0,0,.436.272.385.385,0,0,0,.3-.448" fill="#fff"/>
                  <path id="Shape-17" data-name="Shape" d="M63.038,22.958c.992-.429,2.122-.234,2.413.423S65.116,25,64.131,25.44s-2.128.234-2.419-.423.335-1.623,1.326-2.059m1.5,3.4a2.362,2.362,0,1,0-3.2-1.181,2.388,2.388,0,0,0,3.2,1.181" fill="#005288"/>
                  <path id="Path-96" data-name="Path" d="M62.785,29.621l-.474-1.889.291-.069.133.524,3.985-1.011-.133-.531.29-.069.72,2.849.2-.051.095.379-1.1.278-.095-.366.5-.126-.366-1.44-1.636.417.284,1.105.474-.12.1.373-1.364.347-.1-.373.48-.126-.278-1.105-1.832.461.12.467Z" fill="#005288"/>
                  <path id="Path-97" data-name="Path" d="M7.029,24.562l-.177.575,2.577.758A1.547,1.547,0,0,1,10.693,27.2a2.418,2.418,0,0,1-.082,1.055,1.67,1.67,0,0,1-2.1,1.364L5.76,28.806l-.152.518-.291-.082.575-1.895.284.088-.152.512,2.526.764c.695.2,1.042.177,1.333-.12a1.321,1.321,0,0,0,.3-.531,1.263,1.263,0,0,0-.935-1.693L6.72,25.611l-.164.568-.3-.088L6.733,24.5Z" fill="#005288"/>
                  <path id="Path-98" data-name="Path" d="M11.552,25.674a.48.48,0,1,1,0-.37.48.48,0,0,1,0,.37" fill="#005288"/>
                  <path id="Path-99" data-name="Path" d="M12.442,23.64l-.2.341-1.118-.632L11.318,23l.461.265a1.358,1.358,0,0,0,.758-.632.688.688,0,0,0-.183-.979c-.278-.158-.581-.088-1.263.278a3.6,3.6,0,0,1-1.105.493,1.264,1.264,0,0,1-.84-.158,1.3,1.3,0,0,1-.429-1.895,1.851,1.851,0,0,1,.518-.594l-.189-.107.189-.335,1.061.6-.189.335-.423-.24a1.263,1.263,0,0,0-.632.53.632.632,0,0,0,.2.865c.253.139.486.082,1.2-.3.347-.183.562-.3.632-.341a1.515,1.515,0,0,1,.632-.152,1.39,1.39,0,0,1,.745.183,1.352,1.352,0,0,1,.5,1.895,1.844,1.844,0,0,1-.752.771Z" fill="#005288"/>
                  <path id="Path-100" data-name="Path" d="M14.312,20.4a.467.467,0,1,1-.467-.467.467.467,0,0,1,.467.467" fill="#005288"/>
                  <path id="Path-101" data-name="Path" d="M25.364,11.217l-3.025,1.554-.133-.265.48-.246L20.8,8.6l-.486.253-.139-.272L22.8,7.232l-.088-.177.341-.177.518,1.011-.335.177L23,7.6l-1.32.682.777,1.5,1.011-.524-.221-.429.341-.183L24.227,9.9l-.341.183-.227-.442-1.017.518.808,1.573,1.377-.714-.24-.467.341-.177Z" fill="#005288"/>
                  <path id="Path-102" data-name="Path" d="M28.27,10.162l-1.964.632-.095-.291.518-.171-1.263-3.9-.518.171-.126-.284,2.059-.632a1.326,1.326,0,0,1,1.813.827,1.484,1.484,0,0,1-1,1.832,1.465,1.465,0,0,1-.379.076l-.107-.328.189-.038c.461-.158.632-.575.4-1.175s-.568-.891-1.055-.726l-.411.133L27.6,10.074l.581-.189Z" fill="#005288"/>
                  <path id="Shape-18" data-name="Shape" d="M30.6,7.579l.41-1.895.966,1.642Zm3.505,1-.291.051L31.25,4.421l-.423.076L29.792,9.309l-.442.076.057.3,1.459-.253-.057-.3-.562.095.259-1.213,1.705-.291.632,1.067-.486.082.044.3,1.705-.3Z" fill="#005288"/>
                  <path id="Shape-19" data-name="Shape" d="M36.114,4.566h.448c.505,0,.8.335.8.9a.853.853,0,0,1-.827.954h-.423Zm2.893,4.011h-.291c-.145,0-.227-.063-.392-.309L37.314,6.7a1.263,1.263,0,0,0,1-1.263,1.263,1.263,0,0,0-.347-.922,1.566,1.566,0,0,0-1.219-.354h-2.1v.3h.543V8.577h-.543v.3h1.983v-.3h-.537v-1.8h.189l1.067,1.686c.246.379.316.423.739.423h.9Z" fill="#005288"/>
                  <path id="Path-103" data-name="Path" d="M42.24,9.455l-2.267-.385.051-.3.682.12.669-3.941L40.15,4.743l-.095.587-.391-.063.2-1.2.392.069-.032.2,3.335.562.038-.2.385.063-.208,1.2-.385-.069.1-.581-1.213-.2-.663,3.935.676.114Z" fill="#005288"/>
                  <path id="Path-104" data-name="Path" d="M48.916,11.71l-1.977-.771.107-.278.556.221L48.72,8,46,10.661l-.379-3.79L44.533,9.688l.562.215-.107.284-1.541-.6.107-.278.562.215L45.6,5.691l-.556-.221.107-.278,1.181.461.373,3.707L49.3,6.8l1.32.512-.114.278-.556-.215L48.467,11.21l.556.215Z" fill="#005288"/>
                  <path id="Path-105" data-name="Path" d="M52.4,13.983l-2.867-1.832.158-.253.461.291,2.21-3.467L51.9,8.432l.158-.253,2.482,1.585.107-.171.328.208-.613.96-.322-.208.284-.43-1.257-.8-.9,1.421.96.613.259-.4.335.2-.764,1.181-.328-.2.272-.417-.966-.619-.947,1.491,1.307.834.284-.442.328.2Z" fill="#005288"/>
                  <path id="Shape-20" data-name="Shape" d="M20.709,11.059a2.343,2.343,0,0,0-3.322-.474l-1.8,1.32.177.24.442-.316,2.432,3.328.341.126,1.187-.872a2.185,2.185,0,0,0,.966-1.484,2.368,2.368,0,0,0-.423-1.851m-.916,3.12-.467.328-2.318-3.158.486-.36a1.839,1.839,0,0,1,2.406.632,1.8,1.8,0,0,1-.107,2.526" fill="#005288"/>
                  <path id="Path-106" data-name="Path" d="M58.478,13l-.208.221.417.379-2.015,2.217.512-3.992-1.049-.96-.2.221.379.347-.076.423-2.526,2.766-.442-.4-.2.221,1.194,1.086.2-.221-.417-.379,2.1-2.305L55.7,16.295l1.409-.379.12-.032,1.794-1.99.442.4.208-.221Z" fill="#005288"/>
                  <path id="Path-107" data-name="Path" d="M63.284,18.2l-.126.12L61.1,15.625l.164-.12-.24-.309L60,15.935l.24.309.467-.36.751.985L58.3,19.288l-.164-.215a2.846,2.846,0,0,1-.278.139l1.175,1.535.24-.183-.417-.543L62.015,17.6l.745.979-.474.36.24.309.966-.733Z" fill="#005288"/>
                  <path id="Path-108" data-name="Path" d="M42.4,67.238l-.379.088-.278-1.263.385-.082.114.518a1.3,1.3,0,0,0,.966.139.682.682,0,0,0,.632-.783c-.069-.309-.322-.486-1.061-.771a3.418,3.418,0,0,1-1.105-.5,1.194,1.194,0,0,1-.436-.733,1.3,1.3,0,0,1,1.13-1.585,1.85,1.85,0,0,1,.79,0l-.044-.208.379-.082.259,1.194-.379.082-.107-.48a1.264,1.264,0,0,0-.789-.1.632.632,0,0,0-.518.733c.063.278.259.417,1.023.695.366.139.632.215.688.259a1.56,1.56,0,0,1,.524.36,1.382,1.382,0,0,1-.752,2.337A1.9,1.9,0,0,1,42.366,67Z" fill="#005288"/>
                  <path id="Path-109" data-name="Path" d="M49.661,64.958,46.5,66.2l-.107-.278.505-.2-1.5-3.827-.505.2-.114-.278,2.741-1.074-.069-.189.36-.139.41,1.055-.354.139-.183-.474-1.389.543.619,1.566,1.067-.417-.177-.455.354-.145.518,1.307-.36.145-.183-.461-1.067.417.644,1.642,1.446-.568-.2-.493.36-.139Z" fill="#005288"/>
                  <path id="Path-110" data-name="Path" d="M54.423,62.059a4.031,4.031,0,0,1-1.149,1.049,2.445,2.445,0,0,1-2.6-4.143,2.639,2.639,0,0,1,1.15-.417l-.158-.259.335-.2.632,1.093-.335.208L52.067,59a1.491,1.491,0,0,0-1.061.215,1.786,1.786,0,0,0-.4,2.59,1.895,1.895,0,0,0,2.564.853,1.6,1.6,0,0,0,.695-.758l-.278-.467.341-.2Z" fill="#005288"/>
                  <path id="Path-111" data-name="Path" d="M56.57,54.688l-.442.4,1.813,1.983a1.573,1.573,0,0,1,.423,1.781,2.464,2.464,0,0,1-.632.859,1.7,1.7,0,0,1-2.526.088l-1.945-2.135-.4.366-.2-.221,1.478-1.345.2.221-.4.36,1.794,1.971c.486.531.808.688,1.206.581a1.314,1.314,0,0,0,.531-.3,1.263,1.263,0,0,0,.069-1.933l-1.787-1.964-.442.4-.171-.227,1.225-1.111Z" fill="#005288"/>
                  <path id="Path-112" data-name="Path" d="M64.592,50.52l-.954,1.762-.259-.145.259-.48L60.019,49.7l-.259.48-.265-.145.954-1.756.265.139-.259.474,3.619,1.958.259-.467Z" fill="#005288"/>
                  <path id="Path-113" data-name="Path" d="M66.417,46.244,65.608,48.4l-.278-.107.24-.651-3.733-1.4L61.4,47.394l.549.208-.133.366-1.137-.43.139-.366.183.076L62.2,44.078,62.015,44l.133-.366,1.137.43-.139.366-.55-.208-.436,1.149,3.733,1.409.246-.644Z" fill="#005288"/>
                  <path id="Path-114" data-name="Path" d="M67.686,40.989,67.3,42.954,67,42.9l.1-.531-1.933-.373-2.375.973-.082.442-.3-.057.385-1.964.291.063-.1.518,1.73-.695-1.352-1.232-.114.594-.3-.057.316-1.636.3.057-.1.505,1.693,1.547,2.116.411.107-.531Z" fill="#005288"/>
                  <path id="Shape-21" data-name="Shape" d="M62.874,53.09l-.177.24c-.082.114-.183.145-.486.126l-1.857-.114a1.322,1.322,0,0,0-1.364-1.819,1.573,1.573,0,0,0-1,.764l-1.263,1.693.24.183.328-.436,3.341,2.444-.322.436.24.177,1.187-1.6L61.5,55l-.316.43L59.735,54.36l.114-.152,1.983.139c.455,0,.53,0,.783-.341l.537-.733Zm-4.952-.038.272-.36a.777.777,0,0,1,1.2-.107.853.853,0,0,1,.272,1.263l-.246.341Z" fill="#005288"/>
                  <path id="Path-115" data-name="Path" d="M6.272,45.41,5.8,43.465l.291-.069.126.518,1.825-.442-.549-2.255-1.825.442.133.518-.3.076-.474-1.945.291-.069.133.53,3.992-.979-.126-.531.291-.069.474,1.945-.291.069-.126-.518-1.762.43.549,2.255,1.768-.429-.133-.524.29-.069.48,1.945-.3.069-.126-.53-4,.979.133.531Z" fill="#005288"/>
                  <path id="Shape-22" data-name="Shape" d="M8.994,46.5c.985-.448,2.116-.265,2.413.385s-.3,1.63-1.263,2.078-2.122.265-2.419-.392.309-1.623,1.295-2.072m1.516,3.4a2.362,2.362,0,1,0-3.208-1.137,2.394,2.394,0,0,0,3.208,1.137" fill="#005288"/>
                  <path id="Path-116" data-name="Path" d="M12.347,56.659,11.1,54.941l.246-.171.347.48,2.5-1.806-3.72.758,1.731-3.385L9.764,52.585l.354.486-.24.183-.973-1.339.24-.177.354.486,3.335-2.419-.354-.48.24-.177.745,1.017-1.7,3.322,3.568-.739.827,1.143-.24.177-.354-.486L12.24,56l.354.486Z" fill="#005288"/>
                  <path id="Path-117" data-name="Path" d="M16.067,60.316l-2.5-2.305.2-.221.4.373,2.792-3.032-.4-.366.2-.221,2.166,2,.133-.151.284.265-.771.834-.278-.253.347-.379-1.093-1.01-1.143,1.244.84.77.328-.354.291.253-.954,1.036-.291-.253.341-.366-.84-.777-1.194,1.295,1.137,1.049.36-.385.278.259Z" fill="#005288"/>
                  <path id="Path-118" data-name="Path" d="M20.318,63.234l-2.8-1.882.17-.253.455.3,2.293-3.41-.455-.31.17-.246,1.661,1.118-.17.253-.442-.3-2.229,3.316,1.263.846.291-.436.322.215Z" fill="#005288"/>
                  <path id="Shape-23" data-name="Shape" d="M23.173,62.621l1.4-1.32-.12,1.895Zm2.3,2.8-.278-.12.278-4.895-.392-.177-3.568,3.391-.4-.183-.126.272,1.345.632.126-.272-.518-.24.9-.859,1.579.72-.076,1.263-.455-.2-.12.272,1.585.663Z" fill="#005288"/>
                  <path id="Path-119" data-name="Path" d="M30.41,67.105l-.486-.114-1.6-3.985-.726,3.032.549.139-.069.284L26.5,66.088l.069-.291.581.139.872-3.644-.139-.41-.5-.12.069-.291,1.383.328,1.484,3.745.695-2.912-.549-.133.076-.291,1.566.373-.069.291-.587-.139Z" fill="#005288"/>
                  <path id="Shape-24" data-name="Shape" d="M35.046,62.747l-2.2-.082v.3h.543L33.24,67.08h-.55v.3l2.217.082h0a2.236,2.236,0,0,0,1.68-.562,2.406,2.406,0,0,0,.808-1.718,2.337,2.337,0,0,0-2.312-2.432m1.307,2.4c-.038,1.118-.745,1.945-1.642,1.895h-.581l.139-3.922h.632c.834,0,1.516.96,1.478,2.008" fill="#005288"/>
                  <path id="Shape-25" data-name="Shape" d="M18.467,37.175a2.615,2.615,0,0,0-1.3,3.549c.632-.91,1.844-1.105,1.3-3.549M17.2,40.655c-.164-.682.265-2.526.878-2.886a18.347,18.347,0,0,0-.878,2.886" fill="#fff"/>
                  <path id="Path-120" data-name="Path" d="M17.053,34.623a2.785,2.785,0,0,0-1.333,1.585A2.614,2.614,0,0,1,16,36.6a3.487,3.487,0,0,1,.815-1.554,8.338,8.338,0,0,0-.644,1.838,2.632,2.632,0,0,1,.208,1.1,3.158,3.158,0,0,0,.676-3.36" fill="#fff"/>
                </g>
              </g>
            </g>
          </g>
        </g>
      </g>
    </g>
  </g>
</svg>
