<svg xmlns="http://www.w3.org/2000/svg" width="186.138" height="186.035" viewBox="0 0 186.138 186.035">
  <g id="Group_389" data-name="Group 389" transform="translate(-327 -545.719)">
    <path id="Path_4" data-name="Path 4" d="M135.041-583.4a92.771,92.771,0,0,0-32.272,9.342,93.785,93.785,0,0,0-36.62,32.51A93.525,93.525,0,0,0,53.682-467.9a93.644,93.644,0,0,0,77.147,69.775c4.824.713,19.737.747,24.968.034A92.213,92.213,0,0,0,211-425.679a93.484,93.484,0,0,0,25.172-49.529c.849-4.824,1.223-20.246.611-25.648A92.97,92.97,0,0,0,213.139-553.1c-15.185-16.51-33.563-26.327-55.847-29.792A152.023,152.023,0,0,0,135.041-583.4Zm19.533,18.888a74.171,74.171,0,0,1,22.76,7.134A69.714,69.714,0,0,1,197.751-542.4a74.255,74.255,0,0,1,13.35,84.552,74.932,74.932,0,0,1-41.987,37.537,74.5,74.5,0,0,1-69.5-10.361,83.54,83.54,0,0,1-19.465-21.333,74.942,74.942,0,0,1,1.393-79.219A66.318,66.318,0,0,1,91.7-543.658,74.14,74.14,0,0,1,154.574-564.516Z" transform="translate(276.054 1129.331)" fill="#e6e6e6"/>
    <g id="Group_370" data-name="Group 370" transform="translate(288.52 176)">
      <path id="Path_272" data-name="Path 272" d="M131.879,510.173a10.54,10.54,0,1,1,10.991-10.53A10.767,10.767,0,0,1,131.879,510.173Z" fill="#c03"/>
      <path id="Path_273" data-name="Path 273" d="M140.108,483H123.891l-5.411-60h26.942Z" fill="#c03"/>
    </g>
  </g>
</svg>
